# xmcd CD database file
#
# Track frame offsets:
#	150
#	26359
#	51795
#	66750
#	83312
#	110430
#	129096
#	150261
#	165338
#	183150
#	202560
#	226188
#	247162
#	263609
#
# Disc length: 3798 seconds
#
# Revision: 0
# Processed by: cddbd v1.5.2PL0 Copyright (c) Steve Scherf et al.
# Submitted via: CDex 1.51
#
DISCID=920ed40e
DTITLE=Artisti vari - NANS 193
DYEAR=2009
DGENRE=New Age
TTITLE0=Stephens Peppos - The valley
TTITLE1=Bardo State - Mio dolore
TTITLE2=Collection D'Arnell Andrea - Closer to unicorn
TTITLE3=Ralf Hildenbeutel - Tree scrapes sky with grace
TTITLE4=Diatonis - Crescent moon
TTITLE5=René Aubry - Demi Lune
TTITLE6=Al Conti - Daugther of the city
TTITLE7=Marco Banducci and Sergio Barbirato - Risciò
TTITLE8=Parish - La fleuve va
TTITLE9=Riccardo Prencipe's Corde Oblique - Cantastorie
TTITLE10=Francesco Buccheri - Il sogno
TTITLE11=Stephen Poppos - The gift
TTITLE12=Crista Galli - Oriental garden
TTITLE13=Al Conti - Heart Triunphant
EXTD=YEAR: 2009
EXTT0=
EXTT1=
EXTT2=
EXTT3=
EXTT4=
EXTT5=
EXTT6=
EXTT7=
EXTT8=
EXTT9=
EXTT10=
EXTT11=
EXTT12=
EXTT13=
PLAYORDER=
